<svg width="45" height="45" viewBox="0 0 45 45" fill="none" xmlns="http://www.w3.org/2000/svg">
    <path d="M36.2992 33.9469C38.2377 36.9267 39.1513 38.5088 39.1513 40.159C39.1513 43.418 36.672 44.9982 33.332 44.9982C31.8597 44.9982 30.9093 44.9963 28.5074 43.7764C28.5074 43.7764 26.9511 42.386 23.3091 42.5288C19.6331 42.3869 18.0759 43.7939 18.0759 43.7939C15.674 45.0129 14.7576 45 13.2872 45C9.94716 45 7.46598 43.4216 7.46598 40.1608C7.46598 38.5106 8.38239 36.9304 10.32 33.9488C10.32 33.9488 13.9827 28.0104 17.1566 25.2167C19.45 23.2007 22.7938 23.2081 22.7938 23.2081H23.8254C23.8254 23.2081 27.3154 23.1989 29.4653 25.2167C32.5411 28.1118 36.2992 33.9479 36.2992 33.9469ZM15.1492 19.2369C18.6412 19.2369 21.4716 14.9303 21.4716 9.61844C21.4716 4.3066 18.6412 0 15.1492 0C11.6573 0 8.82691 4.3066 8.82691 9.61844C8.82691 14.9303 11.6573 19.2369 15.1492 19.2369ZM9.09022 28.5522C11.6639 27.3921 12.2509 23.279 10.4002 19.365C8.54944 15.4509 4.9631 13.2174 2.38943 14.3765C-0.184243 15.5356 -0.770327 19.6497 1.07947 23.5637C2.93021 27.4778 6.51655 29.7104 9.09022 28.5522ZM29.8485 19.2369C33.3405 19.2369 36.1718 14.9303 36.1718 9.61844C36.1718 4.3066 33.3405 0 29.8485 0C26.3566 0 23.5262 4.3066 23.5262 9.61844C23.5262 14.9303 26.3566 19.2369 29.8485 19.2369ZM42.6093 14.3756C40.0347 13.2156 36.4493 15.449 34.5985 19.364C32.7478 23.279 33.3348 27.3921 35.9094 28.5522C38.484 29.7113 42.0694 27.4778 43.9202 23.5637C45.7709 19.6497 45.1839 15.5356 42.6093 14.3756Z" fill="black"/>
</svg>
