<svg width="50" height="48" viewBox="0 0 50 48" fill="none" xmlns="http://www.w3.org/2000/svg">
<path d="M35.9597 13H35.9798M14.8698 4H34.9555C40.502 4 44.9983 8.47715 44.9983 14V34C44.9983 39.5228 40.502 44 34.9555 44H14.8698C9.32324 44 4.8269 39.5228 4.8269 34V14C4.8269 8.47715 9.32324 4 14.8698 4ZM32.9469 22.74C33.1948 24.4045 32.9092 26.1044 32.1309 27.598C31.3526 29.0916 30.1211 30.3028 28.6116 31.0593C27.1022 31.8159 25.3915 32.0792 23.7231 31.8119C22.0547 31.5445 20.5134 30.7602 19.3184 29.5703C18.1235 28.3805 17.3357 26.8457 17.0673 25.1844C16.7988 23.5231 17.0632 21.8198 17.823 20.3167C18.5828 18.8137 19.7992 17.5875 21.2992 16.8125C22.7992 16.0375 24.5064 15.7532 26.178 16C27.8831 16.2518 29.4617 17.0429 30.6806 18.2566C31.8995 19.4703 32.694 21.0422 32.9469 22.74Z" stroke="white" stroke-width="4" stroke-linecap="round" stroke-linejoin="round"/>
</svg>
