<svg width="49" height="48" viewBox="0 0 49 48" fill="none" xmlns="http://www.w3.org/2000/svg">
<g clip-path="url(#clip0_175_112)">
<path d="M46.6126 6.00009C44.6892 7.35105 42.5595 8.38431 40.3057 9.06009C39.096 7.67511 37.4883 6.69348 35.7001 6.24794C33.9119 5.80241 32.0294 5.91448 30.3072 6.569C28.585 7.22351 27.1063 8.38889 26.0709 9.90753C25.0356 11.4262 24.4936 13.2248 24.5183 15.0601V17.0601C20.9885 17.1512 17.4909 16.3717 14.3369 14.791C11.1829 13.2103 8.4705 10.8774 6.44121 8.00009C6.44121 8.00009 -1.59307 26.0001 16.4841 34.0001C12.3475 36.796 7.4197 38.198 2.42407 38.0001C20.5012 48.0001 42.5955 38.0001 42.5955 15.0001C42.5936 14.443 42.5398 13.8873 42.4348 13.3401C44.4847 11.3271 45.9314 8.78552 46.6126 6.00009Z" stroke="white" stroke-width="4" stroke-linecap="round" stroke-linejoin="round"/>
</g>
<defs>
<clipPath id="clip0_175_112">
<rect width="48.2057" height="48" fill="white" transform="translate(0.415527)"/>
</clipPath>
</defs>
</svg>
